<svg width="211" height="51" viewBox="0 0 211 51" fill="none" xmlns="http://www.w3.org/2000/svg">
<path fill-rule="evenodd" clip-rule="evenodd" d="M197.492 1.53108C198.604 1.07042 199.796 0.833313 201 0.833313C202.204 0.833313 203.396 1.07042 204.508 1.53108C205.62 1.99175 206.631 2.66696 207.482 3.51817C208.333 4.36937 209.008 5.3799 209.469 6.49205C209.93 7.6042 210.167 8.7962 210.167 9.99998C210.167 12.4311 209.201 14.7627 207.482 16.4818C205.763 18.2009 203.431 19.1666 201 19.1666C199.796 19.1666 198.604 18.9295 197.492 18.4689C196.38 18.0082 195.369 17.333 194.518 16.4818C192.799 14.7627 191.833 12.4311 191.833 9.99998C191.833 7.56883 192.799 5.23725 194.518 3.51817C195.369 2.66696 196.38 1.99175 197.492 1.53108ZM193.667 9.99998C193.667 14.0425 196.958 17.3333 201 17.3333C205.042 17.3333 208.333 14.0425 208.333 9.99998C208.333 5.95748 205.042 2.66665 201 2.66665C196.958 2.66665 193.667 5.95748 193.667 9.99998ZM199.909 11.1641H201.229L202.733 14.125H204.511V14.0333L202.769 10.7425C203.255 10.5316 203.613 10.2383 203.851 9.87165C204.089 9.50498 204.208 9.04665 204.208 8.49665C204.208 7.70831 203.952 7.13081 203.438 6.69998C202.916 6.27831 202.182 6.06748 201.238 6.06748H198.25V14.125H199.909V11.1641ZM201.248 9.82581H199.909V7.41498H201.238C201.688 7.41498 202.018 7.51581 202.228 7.73581C202.448 7.95581 202.549 8.24915 202.549 8.62498C202.549 9.00081 202.439 9.29415 202.21 9.50498C201.981 9.71581 201.66 9.82581 201.248 9.82581ZM0.586914 15V50H27.1869V42.15H10.4869V15H0.586914ZM31.1045 15V50H41.0045V15H31.1045ZM48.0479 15V50H57.7479V31.348L73.1979 50H81.3478V15H71.6478V33.652L56.1979 15H48.0479ZM98.131 49.4C100.498 50.2667 103.064 50.7 105.831 50.7C108.364 50.7 110.948 50.3167 113.581 49.55C116.214 48.7833 118.531 47.6833 120.531 46.25V31.75H111.781V41.364C111.43 41.53 111.08 41.6754 110.731 41.8C109.331 42.2667 107.898 42.5 106.431 42.5C104.964 42.5 103.614 42.2667 102.381 41.8C101.181 41.3 100.148 40.6167 99.2811 39.75C98.4144 38.85 97.7311 37.7833 97.2311 36.55C96.7644 35.3167 96.5311 33.9667 96.5311 32.5C96.5311 30.9667 96.7644 29.6 97.2311 28.4C97.7311 27.1667 98.4144 26.1167 99.2811 25.25C100.148 24.35 101.198 23.6667 102.431 23.2C103.664 22.7333 105.031 22.5 106.531 22.5C108.231 22.5 109.764 22.8333 111.131 23.5C112.531 24.1333 113.831 25.1 115.031 26.4L121.331 20.7C119.631 18.6333 117.481 17.05 114.881 15.95C112.281 14.85 109.331 14.3 106.031 14.3C103.198 14.3 100.581 14.75 98.181 15.65C95.8144 16.5167 93.7644 17.7667 92.0311 19.4C90.2977 21.0333 88.9477 22.9667 87.9811 25.2C87.0144 27.4 86.5311 29.8333 86.5311 32.5C86.5311 35.1667 87.0144 37.6167 87.9811 39.85C88.9477 42.05 90.2811 43.9667 91.9811 45.6C93.7144 47.2333 95.7644 48.5 98.131 49.4ZM136.608 35.95V42.35H154.908V50H126.808V15H154.258V22.65H136.608V28.55H152.158V35.95H136.608ZM160.401 15V50H170.301V40.7H175.705L182.051 50H192.651L185.098 38.9938C187.216 37.9749 188.867 36.5769 190.051 34.8C191.318 32.8667 191.951 30.5833 191.951 27.95C191.951 25.2833 191.318 22.9833 190.051 21.05C188.785 19.0833 186.985 17.5833 184.651 16.55C182.351 15.5167 179.601 15 176.401 15H160.401ZM170.301 33.05H175.801C177.868 33.05 179.401 32.6 180.401 31.7C181.435 30.8 181.951 29.55 181.951 27.95C181.951 26.3167 181.435 25.05 180.401 24.15C179.401 23.25 177.868 22.8 175.801 22.8H170.301V33.05Z" fill="#F8F8F8"/>
</svg>
