<svg width="35" height="35" viewBox="0 0 35 35" fill="none" xmlns="http://www.w3.org/2000/svg">
<path fill-rule="evenodd" clip-rule="evenodd" d="M7.83128 7.83124C6.92769 8.7228 6.20938 9.7843 5.71771 10.9546C5.22605 12.1249 4.97074 13.3809 4.96648 14.6503C4.96223 15.9197 5.20912 17.1774 5.69293 18.351C6.17675 19.5246 6.88793 20.5909 7.78553 21.4885C8.68313 22.3861 9.74942 23.0973 10.923 23.5811C12.0966 24.0649 13.3543 24.3118 14.6237 24.3075C15.8931 24.3033 17.1491 24.048 18.3194 23.5563C19.4897 23.0646 20.5512 22.3463 21.4428 21.4427C23.2278 19.6336 24.2249 17.1919 24.2164 14.6503C24.2079 12.1088 23.1945 9.67382 21.3973 7.87668C19.6002 6.07955 17.1652 5.06616 14.6237 5.05764C12.0822 5.04913 9.64042 6.04618 7.83128 7.83124ZM18.9683 18.9682C17.8196 20.117 16.2616 20.7623 14.637 20.7623C13.0125 20.7623 11.4545 20.117 10.3058 18.9682C9.15706 17.8195 8.51172 16.2615 8.51172 14.637C8.51172 13.0125 9.15706 11.4545 10.3058 10.3057C11.4545 9.15702 13.0125 8.51167 14.637 8.51167C16.2616 8.51167 17.8196 9.15702 18.9683 10.3057C20.117 11.4545 20.7623 13.0125 20.7623 14.637C20.7623 16.2615 20.117 17.8195 18.9683 18.9682Z" fill="#C3C3C3"/>
<path d="M19.586 23.2995C19.3422 23.0557 19.1487 22.7662 19.0168 22.4476C18.8848 22.129 18.8169 21.7876 18.8169 21.4427C18.8169 21.0979 18.8848 20.7565 19.0168 20.4379C19.1487 20.1193 19.3422 19.8298 19.586 19.586C19.8298 19.3422 20.1193 19.1487 20.4379 19.0168C20.7565 18.8848 21.0979 18.8169 21.4427 18.8169C21.7876 18.8169 22.129 18.8848 22.4476 19.0168C22.7662 19.1487 23.0557 19.3422 23.2995 19.586L29.4857 25.774C29.7365 26.0161 29.9364 26.3058 30.074 26.626C30.2116 26.9463 30.284 27.2908 30.287 27.6393C30.29 27.9879 30.2236 28.3335 30.0916 28.6561C29.9597 28.9787 29.7647 29.2718 29.5183 29.5183C29.2718 29.7647 28.9787 29.9597 28.6561 30.0916C28.3335 30.2236 27.9879 30.29 27.6393 30.287C27.2908 30.284 26.9463 30.2116 26.626 30.074C26.3058 29.9364 26.0161 29.7365 25.774 29.4857L19.586 23.2995Z" fill="#C3C3C3"/>
</svg>
