<svg width="50" height="50" viewBox="0 0 50 50" fill="none" xmlns="http://www.w3.org/2000/svg">
<g clip-path="url(#clip0_6_69)">
<path d="M47.3177 28.125H50V31.25H49.4271C49.0799 32.1777 48.5938 33.0241 47.9688 33.7891C47.3438 34.554 46.6059 35.2132 45.7552 35.7666C44.9045 36.32 44.0017 36.7432 43.0469 37.0361C42.092 37.3291 41.0764 37.4837 40 37.5C38.9583 37.5 37.9427 37.3535 36.9531 37.0605C35.9635 36.7676 35.0521 36.3444 34.2188 35.791C33.3854 35.2376 32.6562 34.5784 32.0312 33.8135C31.4062 33.0485 30.9201 32.194 30.5729 31.25H30V28.125H32.6823L37.5521 14.4531L26.6667 11.0596V40.6738C29.6007 40.8529 32.3524 41.4632 34.9219 42.5049C37.4913 43.5466 39.8524 45.0033 42.0052 46.875H46.6667V50H3.33333V46.875H7.99479C10.1302 45.0195 12.4913 43.571 15.0781 42.5293C17.6649 41.4876 20.4167 40.8691 23.3333 40.6738V10.0098L13.0729 6.81152L17.3177 18.75H20V21.875H19.4271C19.0799 22.8027 18.5938 23.6491 17.9688 24.4141C17.3438 25.179 16.6059 25.8382 15.7552 26.3916C14.9045 26.945 14.0017 27.3682 13.0469 27.6611C12.092 27.9541 11.0764 28.1087 10 28.125C8.95833 28.125 7.94271 27.9785 6.95312 27.6855C5.96354 27.3926 5.05208 26.9694 4.21875 26.416C3.38542 25.8626 2.65625 25.2035 2.03125 24.4385C1.40625 23.6735 0.920139 22.819 0.572917 21.875H0V18.75H2.68229L7.55208 5.07812L0.729167 2.9541L1.79688 0L23.3333 6.71387V0H26.6667V7.76367L49.2448 14.7949L48.1771 17.7734L43.0469 16.1621L47.3177 28.125ZM15.7812 21.875H4.21875C4.82639 22.8516 5.64236 23.6165 6.66667 24.1699C7.69097 24.7233 8.80208 25 10 25C11.1979 25 12.309 24.7233 13.3333 24.1699C14.3576 23.6165 15.1736 22.8516 15.7812 21.875ZM13.8021 18.75L10 8.05664L6.19792 18.75H13.8021ZM25 43.75C22.9514 43.75 20.9462 44.0104 18.9844 44.5312C17.0226 45.0521 15.1736 45.8333 13.4375 46.875H36.5625C34.8438 45.8496 32.9948 45.0765 31.0156 44.5557C29.0365 44.0348 27.0312 43.7663 25 43.75ZM40 17.4316L36.1979 28.125H43.8021L40 17.4316ZM45.7812 31.25H34.2188C34.8264 32.2266 35.6424 32.9915 36.6667 33.5449C37.691 34.0983 38.8021 34.375 40 34.375C41.1979 34.375 42.309 34.0983 43.3333 33.5449C44.3576 32.9915 45.1736 32.2266 45.7812 31.25Z" fill="white"/>
</g>
<defs>
<clipPath id="clip0_6_69">
<rect width="50" height="50" fill="white"/>
</clipPath>
</defs>
</svg>
