<svg width="50" height="50" viewBox="0 0 50 50" fill="none" xmlns="http://www.w3.org/2000/svg">
<path d="M20.8333 31.25L31.6458 25L20.8333 18.75V31.25ZM44.9167 14.9375C45.1875 15.9167 45.375 17.2292 45.5 18.8959C45.6458 20.5625 45.7083 22 45.7083 23.25L45.8333 25C45.8333 29.5625 45.5 32.9167 44.9167 35.0625C44.3958 36.9375 43.1875 38.1459 41.3125 38.6667C40.3333 38.9375 38.5417 39.125 35.7917 39.25C33.0833 39.3959 30.6042 39.4584 28.3125 39.4584L25 39.5834C16.2708 39.5834 10.8333 39.25 8.6875 38.6667C6.8125 38.1459 5.60417 36.9375 5.08333 35.0625C4.8125 34.0834 4.625 32.7709 4.5 31.1042C4.35417 29.4375 4.29167 28 4.29167 26.75L4.16667 25C4.16667 20.4375 4.5 17.0834 5.08333 14.9375C5.60417 13.0625 6.8125 11.8542 8.6875 11.3334C9.66667 11.0625 11.4583 10.875 14.2083 10.75C16.9167 10.6042 19.3958 10.5417 21.6875 10.5417L25 10.4167C33.7292 10.4167 39.1667 10.75 41.3125 11.3334C43.1875 11.8542 44.3958 13.0625 44.9167 14.9375Z" fill="white"/>
</svg>
